<svg xmlns="http://www.w3.org/2000/svg" version="1.1" xmlns:xlink="http://www.w3.org/1999/xlink" xmlns:svgjs="http://svgjs.dev/svgjs" width="128" height="128" viewBox="0 0 128 128"><g transform="matrix(0.8046875,0,0,0.8046875,12.391145780619468,16.560966011817236)"><svg viewBox="0 0 98 91" data-background-color="#14242e" preserveAspectRatio="xMidYMid meet" height="118" width="128" xmlns="http://www.w3.org/2000/svg" xmlns:xlink="http://www.w3.org/1999/xlink"><g id="tight-bounds" transform="matrix(1,0,0,1,0.10357003397371045,-0.03596611038729236)"><svg viewBox="0 0 95.481 91.07193222077457" height="91.07193222077457" width="95.481"><g><svg viewBox="0 0 95.481 91.07193222077457" height="91.07193222077457" width="95.481"><g><svg viewBox="0 0 95.481 91.07193222077457" height="91.07193222077457" width="95.481"><g id="textblocktransform"><svg viewBox="0 0 95.481 91.07193222077457" height="91.07193222077457" width="95.481" id="textblock"><g><svg viewBox="0 0 95.481 91.07193222077457" height="91.07193222077457" width="95.481"><g><svg viewBox="0 0 95.481 91.07193222077457" height="91.07193222077457" width="95.481"><g><svg xmlns="http://www.w3.org/2000/svg" xmlns:xlink="http://www.w3.org/1999/xlink" version="1.1" x="0" y="0" viewBox="14.638 14.616492856851206 65.43513385758168 62.41350714314879" enable-background="new 0 0 90 90" xml:space="preserve" height="91.07193222077457" width="95.481" class="icon-icon-0" data-fill-palette-color="accent" id="icon-0"><g fill="#009687" data-fill-palette-color="accent"><path d="M73.312 69.377H22.292V18.357A3.828 3.828 0 0 0 14.638 18.357V77.03H73.311A3.827 3.827 0 0 0 73.312 69.377" fill="#009687" data-fill-palette-color="accent"></path><path d="M78.952 26.052A3.825 3.825 0 0 0 73.541 26.052L54.862 44.729 44.735 34.602 30.229 49.109A3.825 3.825 0 0 0 32.934 55.641C33.913 55.641 34.892 55.267 35.639 54.52L44.734 45.425 54.861 55.552 78.951 31.464A3.825 3.825 0 0 0 78.952 26.052" fill="#009687" data-fill-palette-color="accent"></path></g></svg></g></svg></g></svg></g></svg></g></svg></g></svg></g><defs></defs></svg><rect width="95.481" height="91.07193222077457" fill="none" stroke="none" visibility="hidden"></rect></g></svg></g></svg>