<?xml version="1.0" standalone="no"?>
<!DOCTYPE svg PUBLIC "-//W3C//DTD SVG 20010904//EN"
 "http://www.w3.org/TR/2001/REC-SVG-20010904/DTD/svg10.dtd">
<svg version="1.0" xmlns="http://www.w3.org/2000/svg"
 width="1508.000000pt" height="1499.000000pt" viewBox="0 0 1508.000000 1499.000000"
 preserveAspectRatio="xMidYMid meet">

<g transform="translate(0.000000,1499.000000) scale(0.100000,-0.100000)"
fill="#000000" stroke="none">
<path d="M0 7495 l0 -7495 7540 0 7540 0 0 7495 0 7495 -7540 0 -7540 0 0
-7495z m7808 5125 c147 -15 259 -30 347 -46 164 -29 201 -36 225 -44 14 -4 54
-16 90 -25 85 -23 350 -110 398 -130 217 -93 599 -312 716 -411 41 -35 60 -50
111 -88 96 -71 425 -385 425 -406 0 -5 23 -33 50 -61 28 -28 50 -53 50 -56 0
-8 45 -67 68 -89 23 -22 30 -55 31 -146 1 -21 6 -38 12 -38 6 0 9 6 6 14 -5
13 21 46 35 46 11 0 15 -49 4 -60 -8 -8 -8 -13 0 -18 6 -4 14 -15 17 -25 7
-18 2 -19 -55 -14 -35 3 -53 3 -40 1 28 -7 29 -24 2 -31 -24 -6 -21 -26 3 -31
10 -2 17 3 17 12 0 11 13 16 48 18 38 2 47 6 46 21 -2 20 -2 20 28 6 28 -12
62 -85 52 -108 -6 -13 -8 -12 -11 6 -3 15 -9 20 -20 16 -8 -3 -19 0 -23 7 -4
7 -13 9 -20 5 -9 -6 -9 -9 0 -15 9 -5 9 -13 1 -27 -5 -11 -7 -23 -4 -27 10
-10 61 -7 68 4 3 6 14 10 24 10 14 0 17 -8 15 -47 -1 -48 10 -81 34 -96 6 -4
12 -14 12 -22 0 -8 8 -20 19 -26 15 -10 17 -17 8 -46 -11 -34 -33 -44 -43 -18
-3 8 -1 28 4 45 9 24 8 30 -2 30 -8 0 -20 -20 -27 -44 -8 -27 -18 -43 -27 -42
-8 1 -17 -5 -19 -11 -3 -7 2 -13 11 -13 23 0 20 -17 -5 -30 -11 -7 -19 -14
-16 -16 9 -10 -40 -54 -60 -54 -26 0 -47 44 -33 70 16 29 12 43 -10 37 -16 -4
-22 2 -30 33 -6 21 -16 43 -24 49 -8 7 -17 27 -20 46 -4 21 -13 35 -21 35 -8
0 -15 8 -15 18 0 9 -16 35 -36 57 -19 22 -33 47 -31 56 3 12 -1 15 -14 12 -12
-4 -19 0 -19 9 0 8 -9 23 -20 33 -11 10 -20 28 -20 41 0 14 -16 39 -40 63 -22
22 -40 44 -40 51 0 12 -16 29 -243 261 -163 167 -285 275 -387 343 -30 20 -64
43 -75 52 -77 60 -530 304 -566 304 -5 0 -17 4 -27 9 -38 19 -72 32 -172 65
-185 60 -231 72 -400 107 -144 30 -334 50 -520 55 -200 6 -249 3 -580 -35 -62
-8 -184 -33 -315 -67 -121 -32 -420 -136 -492 -173 -10 -4 -81 -40 -158 -78
-186 -94 -435 -253 -574 -368 -56 -46 -127 -108 -136 -119 -5 -6 -26 -25 -46
-42 -52 -44 -212 -221 -298 -329 -31 -38 -59 -72 -62 -75 -16 -13 -141 -203
-174 -265 -21 -38 -49 -87 -62 -107 -13 -21 -23 -40 -23 -42 0 -3 -20 -47 -45
-98 -78 -158 -182 -457 -205 -588 -5 -25 -16 -74 -25 -110 -34 -134 -73 -604
-60 -720 14 -127 25 -246 29 -310 6 -89 11 -117 26 -135 7 -9 10 -18 7 -22 -3
-3 0 -21 8 -40 8 -20 15 -53 15 -74 0 -21 4 -40 8 -43 5 -3 17 -40 26 -83 18
-75 29 -109 47 -145 11 -21 -2 -30 -39 -28 -54 4 -54 4 -47 -50 l7 -50 -46 0
c-34 0 -46 4 -46 15 0 9 -9 15 -25 15 -14 0 -25 4 -25 9 0 5 -16 15 -35 22
-21 8 -35 20 -35 29 0 9 -3 20 -7 24 -5 4 -9 12 -9 17 -1 5 -2 13 -3 19 0 5
-8 7 -17 3 -13 -5 -15 1 -9 41 6 37 5 45 -7 41 -16 -6 -35 37 -43 100 -2 22
-9 51 -14 65 -30 84 -62 342 -70 569 -5 177 6 473 23 591 42 282 75 434 132
610 19 58 39 114 44 125 5 11 34 80 65 154 125 296 281 543 536 851 100 120
304 320 424 415 28 22 52 43 55 46 11 13 270 190 360 246 52 33 147 85 210
115 109 53 143 69 251 117 52 23 233 90 264 98 11 2 29 8 40 13 43 18 157 48
340 90 268 61 735 95 973 70z m226 -1049 c63 -27 120 -84 145 -142 20 -46 22
-62 17 -182 -3 -73 -6 -584 -6 -1137 -1 -553 -5 -1050 -9 -1105 -5 -55 -5
-104 -1 -110 3 -5 5 -32 4 -60 -8 -121 -11 -155 -17 -161 -3 -4 -2 -15 3 -24
7 -13 6 -20 -6 -24 -11 -4 -14 -14 -10 -33 10 -47 15 -217 7 -228 -14 -17 -20
-55 -10 -61 5 -3 5 -13 -1 -24 -5 -10 -10 -32 -10 -47 0 -16 -5 -34 -11 -40
-9 -9 -7 -16 5 -28 19 -19 13 -53 -12 -71 -10 -7 -12 -17 -6 -35 12 -37 12
-43 -8 -62 -10 -10 -18 -27 -18 -38 0 -16 5 -18 25 -13 22 5 25 3 25 -19 0
-16 -7 -26 -20 -30 -11 -3 -20 -14 -20 -25 0 -10 -12 -32 -26 -47 -15 -16 -23
-34 -19 -43 3 -8 3 -35 -1 -58 -4 -31 -10 -41 -20 -37 -8 3 -14 1 -14 -5 0 -5
8 -12 18 -14 10 -3 19 -12 19 -21 0 -12 -5 -13 -24 -6 -30 11 -53 2 -53 -21 0
-14 7 -18 27 -17 22 2 29 -3 31 -20 3 -23 -12 -31 -23 -13 -4 6 -19 -3 -36
-21 -23 -25 -27 -34 -17 -40 20 -13 36 -11 46 8 12 21 45 9 40 -14 -3 -15 -16
-19 -76 -21 -62 -2 -72 -5 -62 -17 9 -10 7 -20 -5 -39 -10 -14 -15 -35 -12
-46 3 -11 1 -20 -4 -20 -5 0 -9 -9 -9 -20 0 -13 7 -20 20 -20 11 0 20 5 20 10
0 6 9 19 19 29 12 12 17 27 14 40 -4 16 -1 21 14 21 16 0 19 5 15 26 -4 22 -2
25 19 22 13 -1 25 -11 27 -20 4 -20 -36 -68 -55 -68 -8 0 -11 -4 -8 -10 12
-19 -15 -48 -55 -58 -34 -8 -44 -7 -64 9 -26 21 -46 25 -46 9 0 -5 5 -10 11
-10 5 0 7 -4 4 -10 -3 -5 1 -10 9 -10 9 0 16 -7 16 -15 0 -15 10 -19 41 -16
19 2 33 -25 19 -34 -17 -10 -11 -25 10 -25 11 0 20 -7 20 -15 0 -20 -30 -19
-44 0 -10 14 -15 14 -43 0 -22 -11 -30 -21 -26 -32 4 -9 -1 -19 -11 -25 -13
-7 -14 -13 -6 -23 8 -9 6 -14 -6 -19 -8 -3 -14 -12 -11 -19 2 -6 -5 -22 -17
-35 -20 -22 -20 -24 -4 -36 16 -12 16 -14 1 -36 -15 -21 -15 -24 0 -35 21 -15
22 -26 2 -19 -8 4 -15 1 -15 -4 0 -6 -10 -14 -22 -18 -20 -6 -20 -8 -5 -19 19
-13 23 -35 7 -35 -5 0 -10 -9 -10 -20 0 -11 4 -20 10 -20 11 0 40 53 40 75 0
18 11 20 27 4 15 -15 -1 -77 -24 -94 -10 -8 -28 -15 -40 -15 -33 0 -29 -28 5
-32 26 -3 27 -6 26 -51 -2 -55 -10 -74 -12 -26 -1 39 -18 60 -28 35 -6 -16 0
-93 8 -101 2 -2 15 -6 31 -10 22 -6 26 -4 21 9 -4 11 -1 16 11 16 12 0 15 -5
11 -16 -3 -9 -6 -19 -6 -24 0 -4 -17 -10 -37 -13 -21 -3 -48 -8 -59 -12 -17
-5 -23 -2 -27 17 -6 24 -13 1003 -23 3093 -3 688 -10 1340 -16 1450 -15 280
-14 297 25 356 36 56 100 105 161 125 53 18 153 11 210 -15z m2536 -975 c0 -8
-4 -17 -9 -20 -10 -7 -23 19 -14 28 11 11 23 6 23 -8z m-30 -52 c0 -8 -4 -12
-10 -9 -5 3 -10 10 -10 16 0 5 5 9 10 9 6 0 10 -7 10 -16z m45 6 c3 -5 1 -10
-4 -10 -6 0 -11 5 -11 10 0 6 2 10 4 10 3 0 8 -4 11 -10z m-132 -112 c3 -10 7
-10 20 1 18 14 47 9 47 -10 0 -6 -8 -9 -19 -6 -11 3 -26 -4 -36 -16 l-18 -20
-12 24 c-13 24 -11 39 5 39 4 0 10 -6 13 -12z m27 -123 c0 -8 -4 -15 -10 -15
-5 0 -10 7 -10 15 0 8 5 15 10 15 6 0 10 -7 10 -15z m20 -65 c0 -5 -2 -10 -4
-10 -3 0 -8 5 -11 10 -3 6 -1 10 4 10 6 0 11 -4 11 -10z m-1356 -240 c0 -85
-4 -474 -9 -865 -6 -390 -11 -780 -12 -865 -2 -166 -9 -369 -13 -385 -2 -5 0
-23 5 -38 6 -21 3 -31 -10 -41 -13 -9 -16 -20 -11 -40 4 -17 1 -34 -9 -49 -18
-26 -19 -37 -2 -37 27 0 36 -21 22 -54 -8 -18 -17 -56 -21 -84 -4 -35 -11 -52
-21 -52 -15 0 -33 38 -26 56 7 20 -17 27 -43 13 -27 -14 -32 -47 -9 -55 8 -4
15 -16 15 -29 0 -13 -7 -25 -15 -29 -8 -3 -15 -12 -15 -21 0 -8 -4 -15 -10
-15 -5 0 -10 7 -10 15 0 15 -26 20 -54 9 -9 -3 -16 -15 -16 -26 0 -11 -7 -27
-16 -35 -8 -9 -14 -24 -11 -33 4 -14 -4 -16 -49 -15 -30 1 -54 -1 -54 -6 0 -4
-12 -10 -27 -12 -23 -3 -21 -4 9 -6 41 -1 70 -33 49 -54 -20 -20 -11 -30 13
-14 12 9 38 17 57 19 32 3 34 5 34 40 0 21 2 38 5 39 9 2 60 -24 60 -31 0 -3
-16 -20 -35 -37 -19 -17 -35 -39 -35 -49 0 -14 -3 -15 -12 -6 -7 7 -20 12 -29
12 -13 0 -16 -6 -11 -22 5 -20 4 -21 -11 -9 -21 17 -79 7 -98 -16 -12 -14 -12
-16 6 -11 16 4 20 0 21 -19 2 -27 1 -28 -32 -7 l-25 17 17 -42 c9 -23 13 -45
9 -49 -4 -4 -10 -1 -12 6 -8 20 -23 14 -23 -10 0 -51 26 -98 64 -119 36 -19
39 -19 52 -2 8 11 13 13 14 6 0 -15 30 -18 30 -4 0 5 11 12 24 15 18 4 23 11
19 26 -5 19 24 60 42 60 11 0 4 -39 -10 -54 -8 -8 -15 -19 -15 -25 0 -6 7 -11
15 -11 8 0 15 5 15 12 0 9 3 9 11 1 9 -9 8 -18 -5 -37 -17 -27 -44 -34 -62
-16 -7 7 -19 2 -38 -15 -17 -16 -32 -23 -39 -17 -11 7 -29 8 -109 4 -26 -2
-28 -5 -28 -42 0 -30 4 -40 16 -40 9 0 14 6 11 13 -3 8 -1 20 4 28 8 12 10 12
18 0 7 -11 15 -11 41 -2 41 14 40 14 40 -4 0 -8 -4 -15 -10 -15 -5 0 -33 -15
-62 -34 -61 -38 -94 -51 -102 -38 -3 5 -6 648 -8 1428 -1 780 -5 1541 -8 1689
-4 149 -5 276 -2 283 3 10 64 12 276 10 l271 -3 -1 -155z m1421 21 c3 -5 1
-12 -5 -16 -5 -3 -10 1 -10 9 0 18 6 21 15 7z m25 -105 c0 -19 5 -36 10 -38
11 -3 23 -68 41 -208 49 -394 21 -893 -70 -1255 -6 -22 -13 -53 -16 -70 -4
-16 -10 -39 -15 -50 -5 -11 -11 -29 -13 -40 -34 -134 -178 -449 -298 -655 -24
-41 -50 -87 -58 -102 -8 -16 -18 -28 -23 -28 -4 0 -8 -5 -8 -11 0 -13 -87
-138 -157 -225 -182 -228 -444 -464 -718 -649 -133 -89 -233 -144 -397 -220
-42 -19 -83 -35 -91 -35 -7 0 -17 -4 -23 -9 -26 -24 -359 -132 -494 -161 -30
-7 -71 -16 -90 -21 -48 -12 -197 -36 -300 -49 -128 -15 -524 -13 -670 5 -189
23 -384 63 -510 104 -30 10 -75 24 -100 31 -125 37 -400 158 -540 237 -19 11
-57 32 -85 48 -75 41 -369 248 -405 285 -3 3 -34 30 -69 60 -73 62 -111 98
-111 106 0 5 68 -43 80 -56 5 -5 76 -63 124 -100 10 -8 33 -27 50 -41 41 -34
294 -209 302 -209 3 0 18 -9 33 -19 49 -35 296 -158 386 -191 16 -6 46 -18 65
-27 99 -43 227 -87 330 -112 160 -39 233 -54 295 -62 144 -19 393 -39 485 -39
114 0 356 17 425 30 28 5 88 16 135 24 89 16 187 37 255 56 22 6 56 15 75 20
69 18 310 107 409 152 90 40 264 129 291 148 16 11 31 20 34 20 14 0 202 132
311 219 115 91 372 339 445 430 19 24 50 62 68 85 18 22 39 48 45 56 19 24
137 201 137 206 0 2 11 21 24 42 78 125 228 446 289 622 153 440 198 1048 117
1600 -5 36 -12 80 -16 98 -4 21 -2 32 5 32 6 0 11 -15 11 -34z m-3308 -421
c-12 -1459 -18 -1804 -32 -1820 -8 -9 -8 -15 0 -20 5 -3 10 -36 10 -72 0 -56
-3 -66 -20 -70 -20 -5 -27 -27 -11 -37 20 -13 21 -69 2 -102 -16 -27 -17 -33
-5 -38 11 -4 12 -19 8 -68 -8 -76 -26 -111 -67 -126 -35 -13 -53 -6 -36 15 10
12 10 16 -1 23 -8 5 -19 6 -25 2 -5 -4 -17 -5 -26 -4 -9 2 -22 -4 -29 -13 -7
-8 -19 -15 -27 -15 -11 0 -14 -7 -10 -21 4 -16 -1 -23 -24 -31 -16 -5 -34 -19
-40 -29 -11 -22 -3 -24 35 -9 27 10 56 4 56 -11 0 -5 -8 -9 -19 -9 -10 0 -24
-7 -31 -15 -7 -8 -23 -15 -36 -15 -27 0 -28 -3 -14 -30 12 -22 0 -33 -24 -24
-9 3 -16 16 -16 28 0 33 -9 37 -33 15 -12 -11 -27 -17 -35 -14 -10 4 -12 -1
-7 -18 11 -33 23 -43 31 -23 5 13 9 15 15 5 11 -18 -8 -49 -31 -49 -22 0 -30
-25 -18 -58 4 -12 7 -52 7 -88 -1 -53 -6 -70 -24 -92 -18 -20 -27 -24 -35 -16
-8 8 -13 176 -15 590 -3 319 -7 811 -10 1094 -3 283 -5 745 -6 1025 l-1 510
79 6 c43 3 166 5 273 5 l195 -1 -3 -380z m2755 -451 c19 -4 21 -8 13 -32 -8
-24 -22 -276 -21 -360 1 -18 -5 -48 -13 -66 -8 -19 -11 -37 -8 -41 12 -11 10
-80 -3 -105 -22 -43 -19 -113 6 -145 4 -6 4 -17 -1 -25 -6 -8 -10 -27 -10 -42
0 -16 -4 -28 -9 -28 -15 0 -21 -41 -7 -46 14 -5 10 -50 -5 -60 -5 -3 -9 -13
-9 -24 0 -10 -7 -20 -15 -24 -8 -3 -15 -11 -15 -19 0 -21 -24 -67 -35 -67 -6
0 -17 -20 -24 -44 -7 -25 -19 -47 -27 -50 -8 -3 -14 -15 -14 -27 0 -16 -5 -20
-19 -16 -13 3 -18 1 -14 -8 2 -8 -3 -25 -12 -39 -9 -14 -14 -29 -11 -34 3 -5
-6 -22 -19 -38 -14 -16 -25 -37 -25 -46 0 -10 -4 -18 -10 -18 -5 0 -10 5 -10
11 0 5 -5 7 -11 4 -5 -4 -8 -12 -6 -18 2 -7 -9 -27 -24 -45 -16 -18 -29 -39
-29 -47 0 -8 -9 -19 -20 -25 -11 -6 -18 -15 -14 -21 10 -17 -58 -140 -71 -128
-2 3 -5 196 -6 430 -1 233 -5 606 -9 829 -6 355 -5 407 8 417 11 9 73 11 246
7 127 -3 241 -7 253 -10z m-3693 -153 c22 -9 24 -13 16 -43 -5 -18 -11 -222
-14 -453 -3 -231 -6 -427 -6 -435 0 -8 -1 -117 -1 -243 0 -146 -4 -236 -11
-252 -8 -18 -8 -28 1 -39 9 -11 10 -20 2 -35 -6 -11 -8 -26 -5 -34 3 -8 1 -18
-5 -22 -6 -3 -11 -24 -11 -45 0 -58 -7 -70 -35 -60 -14 5 -26 5 -33 -2 -19
-19 5 -38 38 -31 25 5 30 2 36 -23 5 -18 3 -29 -4 -32 -7 -2 -13 -11 -13 -20
-1 -9 -4 -1 -8 18 -4 26 -12 36 -27 38 -17 2 -23 -4 -27 -26 -3 -16 -3 -39 0
-51 4 -14 0 -26 -11 -34 -13 -9 -16 -20 -11 -39 6 -24 9 -25 26 -15 10 6 19
22 19 34 0 14 6 23 15 23 8 0 15 4 15 10 0 5 6 7 14 4 19 -7 -33 -106 -59
-110 -11 -2 -24 -9 -30 -17 -9 -13 -13 -13 -30 -1 -10 8 -27 12 -36 9 -11 -4
-18 1 -22 16 -4 14 -11 20 -21 16 -22 -9 -30 10 -9 21 14 8 15 13 5 24 -15 18
-6 28 25 28 13 0 23 6 23 14 0 8 7 16 15 20 8 3 14 15 12 28 -1 17 3 23 16 22
9 -1 17 5 17 13 0 11 -10 13 -48 9 -44 -5 -49 -3 -67 24 -22 33 -37 37 -54 16
-10 -12 -8 -16 11 -22 29 -8 38 -22 38 -54 -1 -36 -30 -66 -73 -73 -33 -5 -40
-2 -59 24 -12 16 -28 27 -35 25 -17 -7 -52 7 -80 31 -20 18 -22 30 -27 194 -3
95 -6 482 -8 859 l-3 685 30 6 c48 11 481 10 509 0z m-922 -996 c-2 -192 -5
-351 -7 -353 -6 -6 -35 11 -35 22 0 6 -19 31 -41 55 -44 48 -171 235 -218 321
-90 166 -145 286 -136 300 4 7 85 9 223 8 l217 -3 -3 -350z m-1042 204 c0 -5
-7 -9 -15 -9 -15 0 -20 12 -9 23 8 8 24 -1 24 -14z m150 11 c0 -5 -4 -10 -10
-10 -5 0 -10 5 -10 10 0 6 5 10 10 10 6 0 10 -4 10 -10z m81 -21 c7 -14 8 -24
1 -31 -17 -17 -42 -1 -42 27 0 31 25 34 41 4z m-314 -11 c-3 -8 -6 -5 -6 6 -1
11 2 17 5 13 3 -3 4 -12 1 -19z m252 -30 c-5 -10 -14 -18 -19 -18 -16 0 -17
24 -1 42 19 22 34 3 20 -24z m91 -44 c0 -14 -4 -23 -10 -19 -5 3 -10 15 -10
26 0 10 5 19 10 19 6 0 10 -12 10 -26z m103 -204 c-8 -8 -33 32 -27 42 4 6 12
-1 18 -14 7 -12 11 -25 9 -28z m3354 -32 c-3 -8 -6 -5 -6 6 -1 11 2 17 5 13 3
-3 4 -12 1 -19z m-3299 -51 c5 -24 -15 -21 -21 4 -3 13 -1 19 6 16 7 -2 13
-11 15 -20z m47 -77 c-3 -5 -10 -10 -16 -10 -5 0 -9 5 -9 10 0 6 7 10 16 10 8
0 12 -4 9 -10z m45 -71 c0 -6 4 -15 10 -22 40 -49 63 -81 105 -141 25 -38 51
-74 56 -80 47 -56 57 -71 53 -75 -8 -9 -174 187 -174 205 0 5 -11 22 -25 38
-14 16 -25 35 -25 41 0 7 -7 18 -15 25 -8 7 -15 16 -15 21 0 5 7 6 15 3 8 -4
15 -10 15 -15z m4192 -104 c0 -5 -5 -11 -11 -13 -6 -2 -11 4 -11 13 0 9 5 15
11 13 6 -2 11 -8 11 -13z m-62 -64 c0 -4 -11 -17 -25 -27 -14 -10 -25 -25 -25
-32 0 -7 -4 -10 -10 -7 -12 7 30 75 48 75 6 0 12 -4 12 -9z m-967 -28 c-7 -2
-21 -2 -30 0 -10 3 -4 5 12 5 17 0 24 -2 18 -5z m864 1 c-3 -3 -12 -4 -19 -1
-8 3 -5 6 6 6 11 1 17 -2 13 -5z m-957 -100 c0 -16 -9 -18 -29 -5 -7 5 -11 14
-7 19 9 15 36 4 36 -14z m70 6 c0 -5 -5 -10 -11 -10 -5 0 -7 5 -4 10 3 6 8 10
11 10 2 0 4 -4 4 -10z m-2879 -62 c21 -24 23 -28 10 -28 -5 0 -16 11 -25 25
-20 31 -10 33 15 3z m3815 7 c14 -13 14 -16 -1 -21 -16 -6 -34 9 -35 29 0 12
21 8 36 -8z m94 -15 c0 -5 -4 -10 -9 -10 -6 0 -13 5 -16 10 -3 6 1 10 9 10 9
0 16 -4 16 -10z m-3813 -96 c73 -77 67 -90 -7 -16 -33 33 -60 63 -60 66 0 15
19 1 67 -50z m893 36 c0 -5 -5 -10 -11 -10 -5 0 -7 5 -4 10 3 6 8 10 11 10 2
0 4 -4 4 -10z m956 -8 c-5 -13 1 -22 19 -30 29 -13 25 -32 -6 -32 -12 0 -24
-11 -31 -27 l-12 -28 -4 25 c-2 13 -11 30 -20 37 -15 12 -14 16 18 43 40 35
43 36 36 12z m1729 9 c3 -6 -4 -15 -15 -21 -12 -6 -20 -21 -20 -35 0 -26 14
-33 26 -14 4 8 9 8 17 0 17 -17 -22 -42 -53 -35 -33 8 -35 10 -23 37 6 12 15
34 22 50 10 27 34 36 46 18z m120 -23 c14 -6 25 -18 25 -27 0 -12 -3 -11 -13
3 -12 16 -16 17 -35 5 -24 -15 -50 0 -38 20 9 14 29 14 61 -1z m-1732 -41 c-3
-5 -10 -4 -15 1 -6 6 -7 16 -3 22 6 9 9 9 16 -1 4 -7 5 -17 2 -22z m-38 -27
c3 -5 -2 -21 -11 -35 -10 -15 -12 -25 -5 -25 6 0 11 -7 11 -15 0 -20 -10 -19
-26 3 -14 18 -19 64 -7 75 9 10 31 8 38 -3z m1685 -52 c0 -9 -4 -20 -10 -23
-6 -4 -10 9 -10 32 0 28 3 34 10 23 5 -8 10 -23 10 -32z m-3498 -13 c4 -5 5
-11 3 -13 -5 -5 -55 45 -55 54 0 7 40 -24 52 -41z m2558 16 c0 -4 -6 -16 -14
-27 -17 -22 -32 -13 -21 13 5 10 8 21 7 25 -1 4 5 5 13 2 8 -4 15 -9 15 -13z
m-862 -10 c-9 -15 -16 -17 -25 -9 -16 13 -7 28 18 28 16 0 18 -3 7 -19z m1735
-6 c16 -3 25 -10 21 -16 -3 -6 -15 -9 -25 -6 -11 3 -23 -2 -28 -11 -9 -16 -11
-16 -27 0 -20 20 -12 48 13 43 10 -2 31 -6 46 -10z m-1771 -19 c17 -12 17 -14
-2 -31 -20 -18 -21 -18 -34 0 -26 36 1 58 36 31z m803 -36 c3 -5 -3 -10 -14
-10 -12 0 -21 5 -21 10 0 6 6 10 14 10 8 0 18 -4 21 -10z m-908 -107 c-24 -25
-47 -24 -47 1 0 15 63 45 69 32 2 -4 -8 -19 -22 -33z m1953 43 c0 -2 -7 -6
-15 -10 -8 -3 -15 -1 -15 4 0 6 7 10 15 10 8 0 15 -2 15 -4z m-40 -26 c0 -5
-2 -10 -4 -10 -3 0 -8 5 -11 10 -3 6 -1 10 4 10 6 0 11 -4 11 -10z m-1660 -44
c0 -11 -19 -15 -25 -6 -3 5 1 10 9 10 9 0 16 -2 16 -4z m-200 -26 c0 -5 -4
-10 -10 -10 -5 0 -10 5 -10 10 0 6 5 10 10 10 6 0 10 -4 10 -10z m-40 -69 c0
-11 -4 -22 -9 -25 -12 -8 -34 21 -26 34 11 17 35 11 35 -9z m31 -14 c-1 -12
-15 -9 -19 4 -3 6 1 10 8 8 6 -3 11 -8 11 -12z m886 -69 c-3 -8 -6 -5 -6 6 -1
11 2 17 5 13 3 -3 4 -12 1 -19z m38 -68 c3 -5 -1 -10 -9 -10 -9 0 -16 5 -16
10 0 6 4 10 9 10 6 0 13 -4 16 -10z m5865 -2662 c0 -83 -3 -148 -7 -144 -4 3
-7 66 -8 139 -1 73 -5 138 -9 145 -4 7 -1 12 8 12 14 0 16 -21 16 -152z
m-9739 -35 c34 -71 76 -159 94 -198 18 -38 56 -118 84 -178 28 -59 51 -109 51
-112 0 -7 40 -96 140 -310 89 -190 100 -216 100 -230 0 -11 -13 -15 -47 -17
-91 -3 -208 4 -219 13 -7 5 -20 41 -30 80 -11 43 -25 74 -36 80 -10 5 -113 8
-235 7 l-218 -3 -25 -77 c-14 -43 -30 -82 -36 -88 -7 -7 -55 -10 -130 -8 -144
4 -141 -8 -51 181 95 197 119 246 205 432 155 332 267 555 280 555 7 0 40 -57
73 -127z m-2037 92 c6 -10 51 -82 100 -159 163 -258 311 -456 340 -456 7 0 40
42 74 93 34 50 115 171 180 267 64 96 132 199 151 229 18 30 36 50 41 45 8 -8
59 -252 91 -429 6 -33 15 -80 19 -105 11 -51 57 -337 63 -390 3 -19 10 -75 17
-123 16 -118 17 -117 -124 -117 -61 0 -117 4 -125 9 -10 6 -17 39 -22 98 -9
123 -50 457 -56 463 -3 3 -13 -6 -24 -20 -11 -14 -57 -72 -104 -130 -46 -58
-105 -134 -132 -169 -27 -36 -53 -66 -58 -67 -8 -3 -216 257 -288 360 -24 33
-34 10 -41 -91 -4 -54 -11 -125 -16 -158 -5 -33 -14 -100 -20 -150 -19 -152
-2 -136 -143 -133 l-122 3 1 61 c0 34 6 95 12 135 14 87 25 170 47 334 22 167
43 310 55 375 6 30 14 80 19 110 21 130 39 162 65 115z m3763 -161 c103 -94
262 -244 353 -332 l165 -161 3 302 c2 270 4 303 19 315 26 19 197 16 217 -4
14 -14 16 -74 16 -508 0 -545 -3 -616 -30 -616 -29 0 -218 170 -548 492 -95
93 -177 166 -182 163 -5 -3 -7 -129 -4 -303 4 -197 2 -302 -5 -312 -7 -11 -34
-16 -100 -18 -146 -6 -131 -73 -131 578 0 307 3 565 6 574 4 10 11 13 19 8 8
-4 98 -84 202 -178z m1672 137 c66 -20 143 -66 180 -105 l23 -25 -53 -75 c-30
-42 -60 -76 -66 -76 -7 0 -43 16 -80 35 -140 72 -248 62 -303 -28 -49 -80 -16
-125 111 -147 35 -7 84 -15 109 -20 112 -20 227 -81 275 -145 97 -127 82 -325
-34 -440 -47 -48 -141 -93 -221 -106 -154 -26 -310 17 -447 121 -81 62 -81 64
-6 150 37 41 72 76 78 78 7 2 35 -16 61 -39 120 -104 279 -129 349 -55 53 56
41 157 -24 190 -15 8 -88 27 -162 42 -207 41 -277 84 -323 199 -57 144 -14
309 104 390 105 73 295 98 429 56z m-2341 -9 c10 -7 12 -124 10 -553 l-3 -544
-125 0 -125 0 -3 544 c-2 429 0 546 10 553 7 4 60 8 118 8 58 0 111 -4 118 -8z
m3737 -102 l0 -105 -157 -3 c-139 -2 -157 -4 -160 -20 -3 -9 -2 -203 0 -429 4
-324 2 -416 -8 -428 -16 -20 -228 -22 -235 -2 -3 12 -15 584 -15 779 l0 98
-162 2 -163 3 -3 94 c-1 52 0 101 2 108 5 11 87 13 453 11 l448 -3 0 -105z
m999 81 c128 -46 193 -108 236 -228 19 -52 22 -77 18 -152 -3 -76 -9 -99 -37
-155 -31 -59 -82 -117 -160 -179 -15 -12 -19 -22 -13 -30 5 -7 33 -43 63 -81
98 -127 169 -231 169 -248 0 -16 -13 -18 -128 -18 -87 0 -133 4 -144 13 -9 6
-57 76 -108 155 l-92 143 -112 -3 -111 -3 -3 -148 -3 -148 -117 3 -117 3 -3
540 c-1 297 0 546 3 554 4 11 58 12 303 8 268 -4 303 -7 356 -26z m1356 19
c12 -7 15 -29 14 -100 -1 -50 -5 -94 -9 -98 -4 -4 -118 -9 -253 -12 l-247 -5
0 -110 0 -110 155 -5 155 -5 0 -110 0 -110 -155 -5 -155 -5 -3 -102 -3 -103
259 0 c187 0 261 -3 270 -12 8 -8 12 -46 12 -104 0 -75 -3 -93 -16 -98 -27
-10 -752 -7 -759 4 -3 5 -9 248 -12 539 -5 424 -4 533 7 546 11 13 59 15 369
15 207 0 362 -4 371 -10z m1178 -96 c3 -98 2 -102 -20 -108 -13 -3 -130 -6
-260 -6 l-238 0 -5 -22 c-3 -13 -5 -61 -3 -108 l3 -85 160 -5 160 -5 0 -110 0
-110 -160 -5 -160 -5 -3 -104 c-2 -77 1 -107 10 -113 7 -4 122 -8 256 -8 l243
0 -3 -102 -3 -103 -375 0 -375 0 -3 539 c-1 392 1 542 9 552 10 12 78 14 388
12 l376 -3 3 -101z m1190 94 c7 -7 12 -44 12 -98 0 -54 -5 -91 -12 -98 -8 -8
-60 -12 -170 -12 -87 0 -159 -1 -160 -2 -1 -2 -5 -201 -8 -443 l-5 -440 -115
0 -115 0 -5 440 c-3 242 -7 441 -8 442 -1 1 -75 4 -164 5 l-163 3 -3 85 c-2
47 0 95 3 108 l5 22 448 0 c335 0 451 -3 460 -12z"/>
<path d="M10230 11270 c0 -5 5 -10 10 -10 6 0 10 5 10 10 0 6 -4 10 -10 10 -5
0 -10 -4 -10 -10z"/>
<path d="M10247 11173 c-3 -5 -8 -25 -12 -46 -7 -35 -6 -37 18 -37 26 0 44 25
26 36 -5 3 -9 15 -7 26 3 21 -16 36 -25 21z"/>
<path d="M10238 11043 c7 -3 16 -2 19 1 4 3 -2 6 -13 5 -11 0 -14 -3 -6 -6z"/>
<path d="M10280 10940 c-12 -8 -9 -10 13 -10 16 0 26 4 22 10 -8 12 -16 12
-35 0z"/>
<path d="M10435 10832 c-11 -4 -22 -18 -24 -32 -1 -14 -7 -32 -11 -41 -5 -8
-4 -22 1 -30 7 -12 9 -12 9 1 0 13 1 13 11 0 7 -11 9 -3 7 30 -3 44 -2 45 29
48 36 4 56 33 20 31 -12 -1 -31 -4 -42 -7z"/>
<path d="M10365 10800 c-3 -5 -1 -18 4 -27 9 -16 10 -14 11 10 0 28 -5 34 -15
17z"/>
<path d="M10486 10736 c7 -19 48 -22 42 -3 -3 6 -14 13 -26 15 -16 3 -20 -1
-16 -12z"/>
<path d="M4487 8273 c-10 -10 -8 -43 2 -43 5 0 16 3 25 6 12 5 13 9 3 25 -13
20 -20 23 -30 12z"/>
<path d="M4420 8235 c-10 -12 -9 -16 4 -21 9 -3 23 -3 32 0 13 5 14 9 4 21 -7
8 -16 15 -20 15 -4 0 -13 -7 -20 -15z"/>
<path d="M7993 7774 c-7 -7 -13 -20 -13 -29 0 -15 1 -15 16 -1 8 9 14 22 12
30 -2 12 -5 12 -15 0z"/>
<path d="M7767 7255 c-7 -16 8 -29 23 -20 10 6 2 35 -10 35 -4 0 -10 -7 -13
-15z"/>
<path d="M7724 7127 c-3 -9 -3 -25 0 -34 6 -15 8 -15 24 0 15 16 15 18 0 34
-16 15 -18 15 -24 0z"/>
<path d="M9045 7620 c3 -5 8 -10 11 -10 2 0 4 5 4 10 0 6 -5 10 -11 10 -5 0
-7 -4 -4 -10z"/>
<path d="M8826 7453 c-7 -7 13 -33 25 -33 5 0 9 6 9 14 0 15 -24 28 -34 19z"/>
<path d="M8688 7223 c7 -3 16 -2 19 1 4 3 -2 6 -13 5 -11 0 -14 -3 -6 -6z"/>
<path d="M8680 6950 c0 -5 5 -10 11 -10 5 0 7 5 4 10 -3 6 -8 10 -11 10 -2 0
-4 -4 -4 -10z"/>
<path d="M7110 7331 c-13 -26 12 -36 28 -11 9 14 8 19 -3 24 -8 3 -19 -3 -25
-13z"/>
<path d="M7091 7244 c0 -11 3 -14 6 -6 3 7 2 16 -1 19 -3 4 -6 -2 -5 -13z"/>
<path d="M6106 7251 c-4 -5 -2 -12 3 -15 5 -4 12 -2 15 3 4 5 2 12 -3 15 -5 4
-12 2 -15 -3z"/>
<path d="M6028 7173 c7 -3 16 -2 19 1 4 3 -2 6 -13 5 -11 0 -14 -3 -6 -6z"/>
<path d="M6175 7080 c3 -5 12 -7 20 -3 21 7 19 13 -6 13 -11 0 -18 -4 -14 -10z"/>
<path d="M3862 3365 c-34 -68 -62 -129 -62 -135 0 -7 42 -10 128 -8 145 3 143
1 102 95 -56 127 -82 172 -100 173 -3 0 -34 -56 -68 -125z"/>
<path d="M9392 3707 c-9 -11 -12 -61 -10 -178 l3 -164 152 -3 c176 -3 213 8
254 74 33 54 32 149 -1 198 -46 67 -86 81 -246 84 -114 3 -142 1 -152 -11z"/>
</g>
</svg>
